<!-- icon666.com - MILLIONS vector ICONS FREE --><svg version="1.1" id="Capa_1" xmlns="http://www.w3.org/2000/svg" xmlns:xlink="http://www.w3.org/1999/xlink" x="0px" y="0px" viewBox="0 0 512 512" style="enable-background:new 0 0 512 512;" xml:space="preserve"><path style="fill:#A0836B;" d="M256,0l-20,30l20,30h15v30h-15l-30,135h90V60C316,26.86,289.14,0,256,0z"></path><path style="fill:#B89987;" d="M241,90V60h15V0c-33.14,0-60,26.86-60,60v165h60V90H241z"></path><polygon style="fill:#D0AFA2;" points="176.34,255 185.66,452 73.901,437.001 58.099,270 "></polygon><g><polygon style="fill:#B89987;" points="195.66,452 168.5,512 81,512 76.74,467 "></polygon><polygon style="fill:#B89987;" points="153.5,195 186.34,255 55.26,240 51,195 "></polygon><polygon style="fill:#B89987;" points="276,255 276,452 165.66,452 156.34,255 "></polygon></g><g><polygon style="fill:#A0836B;" points="286,452 256,512 168.5,512 165.66,452 "></polygon><polygon style="fill:#A0836B;" points="256,195 286,255 156.34,255 153.5,195 "></polygon></g><polygon style="fill:#906B4D;" points="453.901,270 438.099,437 326.34,452 335.66,255 "></polygon><polygon style="fill:#A0836B;" points="355.66,255 346.34,452 256,452 256,255 "></polygon><g><polygon style="fill:#80542F;" points="435.26,467 431,512 343.5,512 316.34,452 "></polygon><polygon style="fill:#80542F;" points="461,195 456.74,240 325.66,255 358.5,195 "></polygon></g><g><polygon style="fill:#906B4D;" points="346.34,452 343.5,512 256,512 256,452 "></polygon><polygon style="fill:#906B4D;" points="358.5,195 355.66,255 256,255 256,195 "></polygon></g><polygon style="fill:#BAB8B6;" points="453.901,270 256,270 236,255 256,240 456.74,240 "></polygon><polygon style="fill:#D6D3D1;" points="256,240 256,270 58.099,270 55.26,240 "></polygon><polygon style="fill:#BAB8B6;" points="435.26,467 256,467 236,452 256,437 438.099,437 "></polygon><polygon style="fill:#D6D3D1;" points="256,437 256,467 76.74,467 73.901,437 "></polygon></svg>