<svg class="border shadow-md" viewBox="0 0 1351.68 760.32" xmlns="http://www.w3.org/2000/svg" preserveAspectRatio="none" style="width: 1351.68px; height: 760.32px;"><rect class="bg" id="bg" x="0" y="0" width="1351.68" height="760.32" fill="#ffffff"/><g transform="rotate(0 675.84 380.16)"><path d="M -775.84 -46.03 S -397.92 -84.05&#10;            0.00 -46.03 377.92 -84.05&#10;            775.84 -46.03 1153.76 -84.05&#10;            1551.68 -46.03 1929.60 -84.05&#10;            2327.52 -46.03 h 110 V 960.32 H -775.84 Z" fill="#1BA4FF" id="-1"/><path d="M -775.84 30.00 S -397.92 -12.00&#10;            0.00 30.00 126.84 -16.00&#10;            775.84 30.00 1153.76 -37.00&#10;            1551.68 30.00 1929.60 -8.02&#10;            2327.52 30.00 h 110 V 960.32 H -775.84 Z" fill="#1c97f2" id="0"/><path d="M -775.84 106.03 S -397.92 68.02&#10;            0.00 106.03 377.92 68.02&#10;            775.84 106.03 1072.68 68.02&#10;            1551.68 106.03 1929.60 34.03&#10;            2327.52 106.03 h 110 V 960.32 H -775.84 Z" fill="#1d8ae5" id="1"/><path d="M -775.84 182.06 S -397.92 144.05&#10;            0.00 182.06 377.92 144.05&#10;            775.84 182.06 987.68 144.05&#10;            1551.68 182.06 1929.60 144.05&#10;            2327.52 182.06 h 110 V 960.32 H -775.84 Z" fill="#1e7dd8" id="2"/><path d="M -775.84 258.10 S -397.92 198.10&#10;            0.00 258.10 377.92 213.10&#10;            775.84 258.10 1153.76 188.10&#10;            1551.68 258.10 1582.52 217.10&#10;            2327.52 258.10 h 110 V 960.32 H -775.84 Z" fill="#1f70cb" id="3"/><path d="M -775.84 334.13 S -397.92 267.13&#10;            0.00 334.13 377.92 285.13&#10;            775.84 334.13 1153.76 296.11&#10;            1551.68 334.13 1859.52 296.11&#10;            2327.52 334.13 h 110 V 960.32 H -775.84 Z" fill="#2063be" id="4"/><path d="M -775.84 410.16 S -397.92 362.16&#10;            0.00 410.16 377.92 372.14&#10;            775.84 410.16 1068.68 372.14&#10;            1551.68 410.16 1929.60 360.16&#10;            2327.52 410.16 h 110 V 960.32 H -775.84 Z" fill="#2156b1" id="5"/><path d="M -775.84 486.19 S -397.92 422.19&#10;            0.00 486.19 196.84 448.18&#10;            775.84 486.19 1022.68 448.18&#10;            1551.68 486.19 1580.52 424.19&#10;            2327.52 486.19 h 110 V 960.32 H -775.84 Z" fill="#2249a4" id="6"/><path d="M -775.84 562.22 S -397.92 501.22&#10;            0.00 562.22 377.92 524.21&#10;            775.84 562.22 856.68 524.21&#10;            1551.68 562.22 1605.52 524.21&#10;            2327.52 562.22 h 110 V 960.32 H -775.84 Z" fill="#233c97" id="7"/><path id="8" d="M -775.84 638.26 S -677.00 600.24&#10;            0.00 638.26 377.92 600.24&#10;            775.84 638.26 1153.76 592.26&#10;            1551.68 638.26 1929.60 600.24&#10;            2327.52 638.26 h 110 V 960.32 H -775.84 Z" fill="#242f8a"/><path id="9" d="M -775.84 714.29 S -397.92 668.29&#10;            0.00 714.29 377.92 672.29&#10;            775.84 714.29 1153.76 662.29&#10;            1551.68 714.29 1558.52 676.27&#10;            2327.52 714.29 h 110 V 960.32 H -775.84 Z" fill="#25227d"/></g></svg>