<svg class="border shadow-md" viewBox="0 0 1351.68 760.32" style="width: 1351.68px; height: 760.32px;" xmlns="http://www.w3.org/2000/svg" preserveAspectRatio="none"><rect class="bg" id="bg" x="0" y="0" width="1351.68" height="760.32" fill="#ffffff"/><g transform="rotate(0 675.84 380.16)"><path id="-1" d="M -1551.68 -20.69 S -785.84 -46.03&#10;            0.00 -20.69 765.84 -46.03&#10;            1551.68 -20.69 2317.52 -46.03&#10;            3103.36 -20.69 h 110 V 960.32 H -1551.68 Z" fill="#6B8E4E"/><path id="0" d="M -1551.68 30.00 S -859.00 -19.00&#10;            0.00 30.00 765.84 1.00&#10;            1551.68 30.00 2152.36 3.00&#10;            3103.36 30.00 h 110 V 960.32 H -1551.68 Z" fill="#66874b"/><path id="1" d="M -1551.68 80.69 S -785.84 34.69&#10;            0.00 80.69 765.84 55.34&#10;            1551.68 80.69 2317.52 55.34&#10;            3103.36 80.69 h 110 V 960.32 H -1551.68 Z" fill="#618048"/><path id="2" d="M -1551.68 131.38 S -785.84 102.38&#10;            0.00 131.38 765.84 96.38&#10;            1551.68 131.38 2317.52 106.03&#10;            3103.36 131.38 h 110 V 960.32 H -1551.68 Z" fill="#5c7945"/><path id="3" d="M -1551.68 182.06 S -804.00 156.72&#10;            0.00 182.06 765.84 156.72&#10;            1551.68 182.06 2317.52 134.06&#10;            3103.36 182.06 h 110 V 960.32 H -1551.68 Z" fill="#577242"/><path id="4" d="M -1551.68 232.75 S -785.84 207.41&#10;            0.00 232.75 765.84 203.75&#10;            1551.68 232.75 2317.52 207.41&#10;            3103.36 232.75 h 110 V 960.32 H -1551.68 Z" fill="#526b3f"/><path id="5" d="M -1551.68 283.44 S -970.00 258.10&#10;            0.00 283.44 765.84 256.44&#10;            1551.68 283.44 2317.52 258.10&#10;            3103.36 283.44 h 110 V 960.32 H -1551.68 Z" fill="#4d643c"/><path id="6" d="M -1551.68 334.13 S -785.84 308.78&#10;            0.00 334.13 669.68 298.13&#10;            1551.68 334.13 2317.52 297.13&#10;            3103.36 334.13 h 110 V 960.32 H -1551.68 Z" fill="#485d39"/><path id="7" d="M -1551.68 384.82 S -785.84 359.47&#10;            0.00 384.82 765.84 350.82&#10;            1551.68 384.82 2317.52 353.82&#10;            3103.36 384.82 h 110 V 960.32 H -1551.68 Z" fill="#435636"/><path id="8" d="M -1551.68 435.50 S -824.00 410.16&#10;            0.00 435.50 596.68 410.16&#10;            1551.68 435.50 2317.52 397.50&#10;            3103.36 435.50 h 110 V 960.32 H -1551.68 Z" fill="#3e4f33"/><path id="9" d="M -1551.68 486.19 S -874.00 457.19&#10;            0.00 486.19 765.84 460.85&#10;            1551.68 486.19 2210.36 460.85&#10;            3103.36 486.19 h 110 V 960.32 H -1551.68 Z" fill="#394830"/><path id="10" d="M -1551.68 536.88 S -785.84 491.88&#10;            0.00 536.88 765.84 489.88&#10;            1551.68 536.88 2317.52 510.88&#10;            3103.36 536.88 h 110 V 960.32 H -1551.68 Z" fill="#34412d"/><path id="11" d="M -1551.68 587.57 S -785.84 562.22&#10;            0.00 587.57 765.84 562.22&#10;            1551.68 587.57 2317.52 547.57&#10;            3103.36 587.57 h 110 V 960.32 H -1551.68 Z" fill="#2f3a2a"/><path id="12" d="M -1551.68 638.26 S -1001.00 598.26&#10;            0.00 638.26 765.84 604.26&#10;            1551.68 638.26 2317.52 610.26&#10;            3103.36 638.26 h 110 V 960.32 H -1551.68 Z" fill="#2a3327"/><path id="13" d="M -1551.68 688.94 S -785.84 663.60&#10;            0.00 688.94 765.84 647.94&#10;            1551.68 688.94 2317.52 663.60&#10;            3103.36 688.94 h 110 V 960.32 H -1551.68 Z" fill="#252c24"/><path id="14" d="M -1551.68 739.63 S -929.00 692.63&#10;            0.00 739.63 765.84 705.63&#10;            1551.68 739.63 2317.52 705.63&#10;            3103.36 739.63 h 110 V 960.32 H -1551.68 Z" fill="#202521"/></g></svg>