<svg class="border shadow-md" viewBox="0 0 1351.68 760.32" xmlns="http://www.w3.org/2000/svg" preserveAspectRatio="none" style="width: 1351.68px; height: 760.32px;"><rect class="bg" id="bg" x="0" y="0" width="1351.68" height="760.32" fill="#ffffff"/><g transform="rotate(0 675.84 380.16)"><path d="M -775.84 -46.03 S -397.92 -84.05&#10;            0.00 -46.03 377.92 -84.05&#10;            775.84 -46.03 970.68 -117.03&#10;            1551.68 -46.03 1929.60 -84.05&#10;            2327.52 -46.03 h 110 V 960.32 H -775.84 Z" fill="#CDD4D8" id="-1"/><path d="M -775.84 30.00 S -397.92 -8.02&#10;            0.00 30.00 377.92 -28.00&#10;            775.84 30.00 1153.76 -8.02&#10;            1551.68 30.00 1929.60 -43.00&#10;            2327.52 30.00 h 110 V 960.32 H -775.84 Z" fill="#bfc4d0" id="0"/><path d="M -775.84 106.03 S -646.00 68.02&#10;            0.00 106.03 368.84 68.02&#10;            775.84 106.03 820.68 68.02&#10;            1551.68 106.03 1929.60 68.02&#10;            2327.52 106.03 h 110 V 960.32 H -775.84 Z" fill="#b1b4c8" id="1"/><path d="M -775.84 182.06 S -397.92 109.06&#10;            0.00 182.06 377.92 144.05&#10;            775.84 182.06 1153.76 116.06&#10;            1551.68 182.06 1756.52 113.06&#10;            2327.52 182.06 h 110 V 960.32 H -775.84 Z" fill="#a3a4c0" id="2"/><path d="M -775.84 258.10 S -397.92 186.10&#10;            0.00 258.10 7.84 220.08&#10;            775.84 258.10 1020.68 196.10&#10;            1551.68 258.10 1657.52 220.08&#10;            2327.52 258.10 h 110 V 960.32 H -775.84 Z" fill="#9594b8" id="3"/><path d="M -775.84 334.13 S -397.92 296.11&#10;            0.00 334.13 249.84 296.11&#10;            775.84 334.13 1153.76 282.13&#10;            1551.68 334.13 1929.60 296.11&#10;            2327.52 334.13 h 110 V 960.32 H -775.84 Z" fill="#8784b0" id="4"/><path d="M -775.84 410.16 S -397.92 372.14&#10;            0.00 410.16 313.84 372.14&#10;            775.84 410.16 1153.76 339.16&#10;            1551.68 410.16 1929.60 372.14&#10;            2327.52 410.16 h 110 V 960.32 H -775.84 Z" fill="#7974a8" id="5"/><path d="M -775.84 486.19 S -397.92 434.19&#10;            0.00 486.19 377.92 442.19&#10;            775.84 486.19 1153.76 448.18&#10;            1551.68 486.19 1691.52 423.19&#10;            2327.52 486.19 h 110 V 960.32 H -775.84 Z" fill="#6b64a0" id="6"/><path d="M -775.84 562.22 S -413.00 524.21&#10;            0.00 562.22 377.92 497.22&#10;            775.84 562.22 1153.76 524.21&#10;            1551.68 562.22 1929.60 524.21&#10;            2327.52 562.22 h 110 V 960.32 H -775.84 Z" fill="#5d5498" id="7"/><path id="8" d="M -775.84 638.26 S -397.92 586.26&#10;            0.00 638.26 377.92 600.24&#10;            775.84 638.26 1153.76 600.24&#10;            1551.68 638.26 1929.60 575.26&#10;            2327.52 638.26 h 110 V 960.32 H -775.84 Z" fill="#4f4490"/><path id="9" d="M -775.84 714.29 S -397.92 676.27&#10;            0.00 714.29 -4.16 649.29&#10;            775.84 714.29 920.68 644.29&#10;            1551.68 714.29 1574.52 670.29&#10;            2327.52 714.29 h 110 V 960.32 H -775.84 Z" fill="#413488"/></g></svg>